<?xml version="1.0" standalone="no"?>
<!DOCTYPE svg PUBLIC "-//W3C//DTD SVG 20010904//EN"
 "http://www.w3.org/TR/2001/REC-SVG-20010904/DTD/svg10.dtd">
<svg version="1.0" xmlns="http://www.w3.org/2000/svg"
 width="640.000000pt" height="640.000000pt" viewBox="0 0 640.000000 640.000000"
 preserveAspectRatio="xMidYMid meet">
<metadata>
Created by potrace 1.11, written by Peter Selinger 2001-2013
</metadata>
<g transform="translate(0.000000,640.000000) scale(0.100000,-0.100000)"
fill="#000000" stroke="none">
<path d="M1600 5433 c-13 -4 -455 -223 -647 -322 -78 -40 -112 -71 -131 -117
-25 -60 -12 -143 28 -185 12 -13 138 -94 208 -134 9 -5 96 -60 192 -121 397
-251 490 -309 510 -319 11 -5 20 -13 20 -17 0 -5 5 -8 10 -8 12 0 94 -52 98
-62 2 -5 7 -8 12 -8 5 0 43 -21 84 -47 345 -216 426 -269 426 -273 0 -3 -36
-23 -81 -44 -44 -21 -148 -74 -232 -117 -84 -44 -157 -79 -164 -79 -6 0 -13
-3 -15 -7 -1 -5 -122 -68 -268 -142 l-265 -134 -375 189 c-465 235 -412 226
-660 100 -247 -126 -282 -145 -307 -173 -43 -49 -53 -124 -25 -194 9 -23 72
-96 183 -214 21 -22 52 -56 71 -76 18 -20 71 -78 118 -129 47 -51 96 -104 109
-119 46 -51 207 -225 280 -302 109 -117 163 -138 354 -140 37 0 72 3 77 6 6 3
10 1 10 -5 0 -6 4 -8 10 -5 5 3 36 6 67 6 32 -1 67 -1 78 -1 11 0 43 0 70 0
54 -1 68 0 88 1 6 0 44 0 82 0 39 0 86 0 105 2 19 1 45 -1 58 -5 12 -4 22 -4
22 0 0 8 243 7 265 -2 8 -3 15 -2 15 2 0 4 33 6 72 4 40 -1 78 -2 83 -3 86 -2
243 12 290 26 61 18 225 93 236 108 3 5 9 8 13 8 7 -1 3 -3 476 236 190 97
351 180 358 185 6 6 12 7 12 3 0 -4 6 -2 13 4 8 6 148 79 313 162 164 83 454
230 644 327 412 209 459 233 463 229 2 -1 11 3 19 10 8 7 102 57 209 111 349
178 384 196 389 201 3 4 34 24 70 46 36 21 76 49 90 62 14 13 28 23 32 23 21
0 298 274 298 295 0 3 10 16 21 29 31 35 129 198 129 213 0 7 4 13 10 13 5 0
9 3 8 8 -1 8 6 29 28 78 42 96 53 273 22 354 -19 49 -52 100 -85 133 -38 39
-132 100 -173 112 -3 1 -35 11 -73 23 -37 12 -89 24 -115 28 -26 3 -65 9 -87
13 -73 13 -314 4 -415 -14 -84 -16 -195 -45 -255 -67 -27 -11 -59 -21 -69 -23
-11 -3 -24 -9 -30 -15 -5 -5 -16 -10 -23 -10 -16 0 -287 -132 -291 -142 -2 -5
-12 -8 -23 -8 -10 0 -19 -4 -19 -10 0 -5 -9 -10 -20 -10 -11 0 -20 -4 -20 -8
0 -7 -52 -31 -67 -30 -3 0 -9 -4 -12 -9 -3 -4 -156 -84 -339 -176 l-333 -168
-77 29 c-42 16 -86 33 -97 37 -11 5 -22 9 -25 10 -10 2 -126 46 -145 54 -11 5
-54 21 -95 36 -94 34 -199 73 -225 85 -11 5 -90 34 -175 65 -85 31 -168 63
-185 70 -44 18 -198 76 -212 79 -7 1 -16 5 -19 9 -4 4 -13 7 -19 7 -7 0 -30 8
-51 17 -22 9 -41 17 -44 18 -3 0 -27 9 -55 19 -27 11 -79 30 -115 43 -36 14
-74 28 -85 33 -11 5 -54 21 -95 35 -41 15 -102 38 -135 51 -33 12 -98 37 -145
55 -47 17 -123 47 -170 65 -78 31 -120 38 -160 27z"/>
<path d="M170 1279 c-71 -6 -94 -15 -126 -51 -41 -46 -45 -75 -42 -285 l3
-200 29 -37 c54 -72 -227 -66 3179 -64 l3084 3 37 29 c60 46 66 70 66 287 0
206 -5 232 -56 280 -25 23 -132 52 -147 39 -4 -4 -26 -4 -47 0 -21 4 -43 4
-49 0 -6 -3 -33 -4 -59 0 -27 3 -60 3 -73 0 -13 -4 -33 -4 -44 0 -11 4 -33 4
-50 0 -16 -3 -41 -4 -55 0 -13 3 -46 3 -72 0 -27 -4 -48 -4 -48 -1 0 5 -65 5
-220 1 -47 -1 -105 -1 -120 -1 -62 2 -102 1 -108 -3 -5 -3 -14 -1 -21 3 -7 5
-30 5 -52 1 -22 -4 -41 -4 -44 0 -2 4 -25 4 -50 0 -25 -4 -45 -4 -45 -1 0 3
-26 5 -57 3 -32 -1 -76 -2 -98 -1 -22 0 -46 0 -52 0 -25 -2 -44 -2 -98 -1 -30
1 -59 -1 -64 -4 -5 -4 -12 -2 -15 2 -3 5 -26 6 -51 2 -25 -4 -45 -4 -45 -1 0
3 -26 5 -57 3 -32 -1 -76 -2 -98 -1 -22 0 -46 0 -52 0 -25 -2 -44 -2 -98 -1
-30 1 -59 -1 -64 -4 -5 -4 -12 -2 -15 2 -3 5 -26 6 -51 2 -25 -4 -45 -4 -45
-1 0 3 -26 5 -57 3 -32 -1 -76 -2 -98 -1 -22 0 -46 0 -52 0 -25 -2 -44 -2 -98
-1 -30 1 -59 -1 -64 -4 -5 -4 -12 -2 -15 2 -3 5 -26 6 -51 2 -25 -4 -45 -4
-45 -1 0 3 -26 5 -57 3 -32 -1 -76 -2 -98 -1 -22 0 -46 0 -52 0 -25 -2 -44 -2
-98 -1 -30 1 -59 -1 -64 -4 -5 -4 -12 -2 -15 2 -3 5 -26 6 -51 2 -25 -4 -45
-4 -45 -1 0 3 -26 5 -57 3 -32 -1 -76 -2 -98 -1 -22 0 -46 0 -52 0 -25 -2 -44
-2 -98 -1 -30 1 -59 -1 -64 -4 -5 -4 -12 -2 -15 2 -3 5 -26 6 -51 2 -25 -4
-45 -4 -45 -1 0 3 -26 5 -57 3 -32 -1 -76 -2 -98 -1 -22 0 -46 0 -52 0 -25 -2
-44 -2 -98 -1 -30 1 -59 -1 -64 -4 -5 -4 -12 -2 -15 2 -3 5 -26 6 -51 2 -25
-4 -45 -4 -45 -1 0 3 -26 5 -57 3 -32 -1 -76 -2 -98 -1 -22 0 -46 0 -52 0 -25
-2 -44 -2 -98 -1 -30 1 -59 -1 -64 -4 -5 -4 -12 -2 -15 2 -3 5 -26 6 -51 2
-25 -4 -45 -4 -45 -1 0 3 -26 5 -57 3 -32 -1 -76 -2 -98 -1 -22 0 -46 0 -52 0
-25 -2 -44 -2 -98 -1 -30 1 -59 -1 -64 -4 -5 -4 -12 -2 -15 2 -3 5 -26 6 -51
2 -25 -4 -45 -4 -45 -1 0 3 -26 5 -57 3 -32 -1 -76 -2 -98 -1 -22 0 -46 0 -52
0 -25 -2 -44 -2 -98 -1 -30 1 -59 -1 -64 -4 -5 -4 -12 -2 -15 2 -3 5 -26 6
-51 2 -25 -4 -45 -4 -45 -1 0 3 -26 5 -57 3 -32 -1 -76 -2 -98 -1 -22 0 -46 0
-52 0 -25 -2 -44 -2 -98 -1 -30 1 -59 -1 -64 -4 -5 -4 -12 -2 -15 2 -3 5 -26
6 -50 2 -25 -4 -47 -4 -48 -1 -2 3 -32 3 -68 0z"/>
</g>
</svg>
